<?xml version="1.0" encoding="UTF-8" standalone="no"?>
<!-- Created with Inkscape (http://www.inkscape.org/) -->

<svg
   version="1.1"
   id="svg2"
   width="546.1333"
   height="546.1333"
   viewBox="0 0 546.1333 546.1333"
   sodipodi:docname="worldwide.svg"
   inkscape:version="1.1 (c68e22c387, 2021-05-23)"
   xmlns:inkscape="http://www.inkscape.org/namespaces/inkscape"
   xmlns:sodipodi="http://sodipodi.sourceforge.net/DTD/sodipodi-0.dtd"
   xmlns="http://www.w3.org/2000/svg"
   xmlns:svg="http://www.w3.org/2000/svg">
  <defs
     id="defs6" />
  <sodipodi:namedview
     id="namedview4"
     pagecolor="#ffffff"
     bordercolor="#666666"
     borderopacity="1.0"
     inkscape:pageshadow="2"
     inkscape:pageopacity="0.0"
     inkscape:pagecheckerboard="0"
     showgrid="false"
     inkscape:zoom="0.79925542"
     inkscape:cx="72.567541"
     inkscape:cy="293.39807"
     inkscape:window-width="2560"
     inkscape:window-height="1377"
     inkscape:window-x="0"
     inkscape:window-y="32"
     inkscape:window-maximized="1"
     inkscape:current-layer="g8" />
  <g
     inkscape:groupmode="layer"
     inkscape:label="Image"
     id="g8">
    <path
       style="fill:#36d2ff;stroke-width:1.06667;fill-opacity:1"
       d="M 248.60829,545.83661 C 197.05337,541.25133 147.98757,521.79544 104.96181,488.877 92.955329,479.69101 67.657562,454.48581 58.396331,442.48191 5.3960233,373.78586 -12.56447,287.20713 9.0516219,204.61526 c 2.9561311,-11.29493 11.2110411,-35.2 12.1552841,-35.2 0.334486,0 4.181905,10.79309 8.549819,23.98464 l 7.941663,23.98464 28.03171,18.68422 c 15.41744,10.27632 28.031709,19.05383 28.031709,19.50557 0,0.45175 -4.08,4.88017 -9.066666,9.84093 l -9.066666,9.01956 v 14.14903 14.14904 l 9.208756,18.45322 9.208758,18.45323 23.591241,4.75462 23.59124,4.75463 0.53334,48.53333 0.53333,48.53333 8.88914,22.07469 8.88915,22.0747 12.97909,4.3253 c 7.1385,2.37891 13.33838,4.3253 13.77752,4.3253 0.43914,0 0.79843,-10.30994 0.79843,-22.91098 v -22.91099 l 19.2,-14.44469 19.2,-14.44469 v -14.10017 -14.10017 l 18.58774,-18.67748 18.58775,-18.67749 4.34919,-21.86666 c 2.39206,-12.02667 4.34757,-22.45533 4.34559,-23.17482 -0.003,-0.97107 -4.74476,-1.38333 -18.40361,-1.59999 l -18.39999,-0.29186 -13.86667,-23.15104 -13.86667,-23.15104 -33.06666,-0.31563 -33.06667,-0.31562 -9.20349,-18.09005 c -5.06193,-9.94953 -9.68224,-18.24963 -10.26736,-18.44467 -0.58512,-0.19504 -6.79295,5.66548 -13.79518,13.02339 -7.00223,7.35789 -13.061918,13.378 -13.465978,13.378 -0.404061,0 -0.734655,-8.29 -0.734655,-18.42224 v -18.42224 l -9.599999,-9.55552 -9.6,-9.55552 v -14.13525 c 0,-13.78971 0.05867,-14.14827 2.4,-14.66834 1.32,-0.29319 16.308691,-2.4999 33.308202,-4.90378 l 30.9082,-4.37071 23.45058,-14.08672 23.45058,-14.08672 14.04265,-23.42981 14.04265,-23.429805 14.20084,-4.888864 14.20084,-4.888864 4.58328,-13.703352 c 2.52081,-7.536845 4.46979,-13.779713 4.33106,-13.873041 -0.13872,-0.09332 -12.69422,-2.219416 -27.90108,-4.724641 l -27.64888,-4.554956 -13.73204,-9.147578 -13.73204,-9.147578 6.71425,-2.482476 c 59.9505,-22.1656684 125.95693,-22.8035288 185.91423,-1.796603 12.55064,4.397305 30.4,12.073339 30.4,13.073383 0,0.384904 -7.56,4.532642 -16.8,9.217198 l -16.8,8.517374 -19.73333,0.533333 -19.73334,0.533334 -9.2854,18.133332 c -5.10698,9.973333 -9.30698,18.387142 -9.33334,18.697356 -0.0263,0.310212 6.14365,2.607457 13.71113,5.104987 l 13.75905,4.540965 18.85836,-4.737269 18.85837,-4.737269 12.44925,4.259716 c 6.84708,2.342845 23.72925,6.586311 37.51591,9.429927 l 25.06667,5.170211 12.8,-8.301564 c 7.04,-4.565862 13.43025,-8.661824 14.20054,-9.102139 1.86867,-1.068158 4.12403,1.076455 14.52144,13.808413 10.46267,12.81186 15.12015,19.33244 22.49049,31.48725 l 5.56835,9.18303 -30.09276,9.98928 -30.09278,9.98929 -27.99978,-4.63856 -27.9998,-4.63855 -9.5167,-14.2192 -9.51671,-14.21921 h -27.99596 -27.99597 l -14.21155,14.24086 -14.21155,14.24087 4.42599,30.8258 c 2.43431,16.95418 4.81937,31.7858 5.30016,32.95913 0.62877,1.53445 9.93962,6.00282 33.16739,15.91731 l 32.29322,13.78398 18.96836,-4.65978 18.96836,-4.65977 13.9313,9.28031 13.93129,9.28031 v 18.66792 18.66791 l 19.2,38.38847 19.2,38.38847 v 18.38975 18.38973 l 12.37839,12.41072 c 14.38154,14.41912 14.22469,11.66577 1.56022,27.38742 -10.84249,13.45984 -34.09397,36.0509 -47.25088,45.9088 -54.74603,41.0188 -122.31392,60.45008 -189.44123,54.4798 z M 540.77933,324.52637 c 0.0512,-1.24262 0.30394,-1.49536 0.64444,-0.64445 0.30813,0.76999 0.27024,1.69001 -0.0842,2.04445 -0.35445,0.35444 -0.60655,-0.27556 -0.56024,-1.4 z m 1.06667,-6.4 c 0.0512,-1.24261 0.30393,-1.49536 0.64443,-0.64445 0.30813,0.77 0.27024,1.69001 -0.0842,2.04445 -0.35444,0.35444 -0.60655,-0.27556 -0.56023,-1.4 z m 1.06666,-6.4 c 0.0512,-1.24261 0.30394,-1.49536 0.64444,-0.64445 0.30813,0.77 0.27024,1.69001 -0.0842,2.04445 -0.35444,0.35444 -0.60655,-0.27556 -0.56023,-1.4 z m 1.1904,-8.44445 c 0.0218,-1.76 0.2608,-2.35087 0.53125,-1.31303 0.27044,1.03783 0.25266,2.47783 -0.0396,3.2 -0.29219,0.72216 -0.51346,-0.12697 -0.49172,-1.88697 z m 1.10619,-13.33333 c 0,-2.05333 0.21952,-2.89333 0.48782,-1.86667 0.26829,1.02667 0.26829,2.70667 0,3.73334 -0.2683,1.02666 -0.48782,0.18666 -0.48782,-1.86667 z m 0.0431,-30.93333 c 0,-2.64 0.20802,-3.72 0.46226,-2.4 0.25426,1.32 0.25426,3.48 0,4.8 -0.25424,1.32 -0.46226,0.24 -0.46226,-2.4 z m -1.18876,-13.86667 c 0,-1.46666 0.24211,-2.06666 0.53801,-1.33333 0.29591,0.73333 0.29591,1.93333 0,2.66667 -0.2959,0.73333 -0.53801,0.13333 -0.53801,-1.33334 z m -1.06667,-8.53333 c 0,-1.46667 0.24211,-2.06667 0.53801,-1.33333 0.29591,0.73333 0.29591,1.93333 0,2.66666 -0.2959,0.73334 -0.53801,0.13334 -0.53801,-1.33333 z M 65.495142,95.815268 c 1.061852,-1.173334 2.17064,-2.133334 2.463973,-2.133334 0.293333,0 -0.335455,0.96 -1.397306,2.133334 -1.061852,1.173333 -2.17064,2.133333 -2.463974,2.133333 -0.293333,0 0.335455,-0.96 1.397307,-2.133333 z m 5.866666,-6.693363 c 0,-0.16135 3.72,-3.881349 8.266666,-8.266666 l 8.266667,-7.973303 -7.973303,8.266666 c -7.405429,7.677897 -8.56003,8.753358 -8.56003,7.973303 z m 396.165302,-6.373303 -2.03199,-2.4 2.4,2.031987 c 1.32,1.117592 2.4,2.197592 2.4,2.4 0,0.853603 -0.85844,0.223421 -2.76801,-2.031987 z M 94.29514,67.015269 c 1.061852,-1.173333 2.17064,-2.133333 2.463973,-2.133333 0.293334,0 -0.335454,0.96 -1.397306,2.133333 -1.061852,1.173334 -2.17064,2.133333 -2.463973,2.133333 -0.293334,0 0.335455,-0.959999 1.397306,-2.133333 z m 356.66392,0.266667 c -1.3268,-1.691793 -1.28907,-1.729521 0.40273,-0.402725 1.7768,1.39346 2.34184,2.269391 1.46394,2.269391 -0.2215,0 -1.0615,-0.839999 -1.86667,-1.866666 z m -5.33333,-4.266666 c -1.3268,-1.691793 -1.28907,-1.729521 0.40273,-0.402726 1.7768,1.39346 2.34184,2.269392 1.46393,2.269392 -0.22149,0 -1.06149,-0.84 -1.86666,-1.866666 z"
       id="path124" />
    <path
       style="fill:#00aa44;stroke-width:1.06667"
       d="m 172.51737,494.60511 -12.44444,-4.24172 -8.88889,-22.07407 -8.8889,-22.07407 -0.53333,-48.53333 -0.53334,-48.53333 -23.59124,-4.75463 -23.591241,-4.75462 -9.208758,-18.45323 -9.208756,-18.45322 v -14.14904 -14.14903 l 9.066666,-9.01956 c 4.986666,-4.96076 9.066666,-9.38742 9.066666,-9.837 0,-0.44959 -12.598805,-9.22035 -27.997343,-19.49057 l -27.997345,-18.67313 -8.2697,-24.78361 -8.2697,-24.78361 7.414043,-15.00398 C 50.030434,109.55858 83.486135,71.92581 124.16181,45.397273 136.4614,37.375519 151.65964,29.120805 162.95782,24.325757 l 7.86266,-3.336989 13.55513,9.029724 13.55512,9.029725 27.64888,4.554956 c 15.20686,2.505225 27.76236,4.631315 27.90108,4.724641 0.13873,0.09332 -1.81025,6.336196 -4.33106,13.873041 l -4.58328,13.703352 -14.20084,4.888864 -14.20084,4.888864 -14.04265,23.429805 -14.04265,23.42981 -23.45058,14.08672 -23.45058,14.08672 -30.9082,4.37071 c -16.999511,2.40388 -31.988202,4.61059 -33.308202,4.90378 -2.341332,0.52007 -2.4,0.87863 -2.4,14.66834 v 14.13525 l 9.6,9.55552 9.599999,9.55552 v 18.42224 c 0,10.13224 0.330594,18.42224 0.734655,18.42224 0.40406,0 6.463748,-6.02011 13.465978,-13.378 7.00223,-7.35791 13.21006,-13.21843 13.79518,-13.02339 0.58512,0.19504 5.20543,8.49514 10.26736,18.44467 l 9.20349,18.09005 33.06667,0.31562 33.06666,0.31563 13.86667,23.15104 13.86667,23.15104 18.39999,0.29186 c 13.65885,0.21666 18.40093,0.62892 18.40361,1.59999 0.002,0.71949 -1.95353,11.14815 -4.34559,23.17482 l -4.34919,21.86666 -18.58775,18.67749 -18.58774,18.67748 v 14.10017 14.10017 l -19.2,14.44469 -19.2,14.44469 v 22.91099 c 0,17.66259 -0.30544,22.89169 -1.33333,22.82677 -0.73333,-0.0463 -6.93333,-1.99298 -13.77777,-4.32592 z M 483.86076,418.1815 471.36179,405.64987 v -18.38973 -18.38975 l -19.2,-38.38847 -19.2,-38.38847 v -18.66791 -18.66792 l -13.93129,-9.28031 -13.9313,-9.28031 -18.96836,4.65977 -18.96836,4.65978 -32.29322,-13.78398 c -23.22777,-9.91449 -32.53862,-14.38286 -33.16739,-15.91731 -0.48079,-1.17333 -2.86585,-16.00495 -5.30016,-32.95913 l -4.42599,-30.8258 14.21155,-14.24087 14.21155,-14.24086 h 27.99597 27.99596 l 9.5228,14.22831 9.5228,14.22831 28.09605,4.62351 28.09606,4.62349 29.66675,-9.89617 c 16.31671,-5.44289 29.81753,-9.7262 30.00182,-9.51847 1.59665,1.79976 7.84515,14.38326 12.17634,24.52121 9.86501,23.09088 16.52538,47.38023 20.06392,73.17003 2.13417,15.55425 2.40168,51.09006 0.49467,65.71021 -5.57959,42.7762 -20.06078,83.05259 -41.95599,116.69182 l -5.71623,8.78227 z M 416.42846,99.01468 c -13.49333,-2.82695 -30.1355,-7.057823 -36.98258,-9.401941 l -12.44925,-4.262033 -18.85837,4.737269 -18.85836,4.737269 -13.75905,-4.540965 c -7.56748,-2.49753 -13.73748,-4.794775 -13.71113,-5.104987 0.0264,-0.310214 4.22636,-8.724023 9.33334,-18.697356 l 9.2854,-18.133332 19.73334,-0.533334 19.73333,-0.533333 17.32128,-8.800247 17.32128,-8.800246 10.94538,6.032214 c 19.66289,10.836601 44.67121,29.496647 58.70211,43.800788 l 6.15671,6.276619 -14.27095,9.278768 c -7.84903,5.103317 -14.45955,9.235117 -14.69006,9.181757 -0.23049,-0.0533 -11.45909,-2.40996 -24.95242,-5.23691 z"
       id="path122" />
  </g>
</svg>