<?xml version="1.0" encoding="UTF-8" standalone="no"?>
<!-- Created with Inkscape (http://www.inkscape.org/) -->

<svg
   width="156.49042mm"
   height="127.15645mm"
   viewBox="0 0 156.49042 127.15645"
   version="1.1"
   id="svg5"
   xmlns="http://www.w3.org/2000/svg"
   xmlns:svg="http://www.w3.org/2000/svg">
  <defs
     id="defs2" />
  <g
     id="layer1"
     transform="translate(-26.754791,-84.921776)">
    <path
       d="m 105,119.85036 c -21.342422,0 -38.703877,17.36144 -38.703877,38.70386 0,21.34243 17.361455,38.70388 38.703877,38.70388 21.34242,0 38.70388,-17.36145 38.70388,-38.70388 0,-21.34242 -17.36936,-38.70386 -38.70388,-38.70386 z m -34.035714,40.9787 h 13.372582 c 0.19747,4.66027 0.963648,9.24943 2.338032,13.65694 H 74.818874 c -2.187955,-4.12315 -3.53074,-8.75182 -3.854588,-13.65694 z m 13.372582,-4.54968 H 70.964286 c 0.323847,-4.90512 1.666633,-9.53379 3.854588,-13.65694 h 11.840227 c -1.374383,4.40751 -2.124763,8.98878 -2.322233,13.65694 z m 7.14047,-13.66483 h 26.847852 c 1.50077,4.39171 2.37753,8.98088 2.5908,13.65694 H 88.886548 c 0.213268,-4.67607 1.090028,-9.25734 2.59079,-13.65694 z m -2.59079,18.21451 h 32.029442 c -0.22117,4.68396 -1.09793,9.26524 -2.6066,13.65694 H 91.493138 c -1.508662,-4.3917 -2.385424,-8.97298 -2.60659,-13.65694 z m 36.587012,0 h 13.56215 c -0.32385,4.90512 -1.66663,9.53379 -3.85458,13.65694 h -12.0377 c 1.37438,-4.40751 2.13266,-8.98878 2.33013,-13.65694 z m 0,-4.54968 c -0.19747,-4.66026 -0.94785,-9.24943 -2.32223,-13.65694 h 12.0219 c 2.18795,4.12316 3.53074,8.75972 3.85459,13.65694 z m 6.78503,-18.21452 h -10.7186 c -1.78513,-4.3522 -4.17054,-8.45955 -7.06149,-12.29044 7.18786,2.07737 13.38049,6.46117 17.78009,12.29044 z M 107.5434,124.53431 c 3.7519,4.08365 6.75343,8.64914 8.98088,13.53055 H 93.286158 c 2.219549,-4.87352 5.221069,-9.43899 8.972982,-13.52265 0.90835,-0.0711 1.80881,-0.13428 2.74086,-0.13428 0.85307,-0.008 1.69824,0.0632 2.5434,0.12638 z m -12.258863,1.2954 c -2.867239,3.8151 -5.244772,7.90665 -7.014092,12.23515 H 77.741414 c 4.344311,-5.77397 10.457945,-10.12618 17.543123,-12.23515 z m -17.543124,53.21387 h 10.55273 c 1.777219,4.32852 4.162644,8.42797 7.045684,12.24307 -7.116774,-2.10107 -13.246203,-6.46119 -17.598414,-12.24307 z m 24.573017,13.52266 c -3.759813,-4.08365 -6.777133,-8.64913 -9.004583,-13.52266 h 23.198633 c -2.22745,4.88143 -5.24477,9.44691 -9.01247,13.53056 -0.82147,0.0553 -1.65084,0.12638 -2.48811,0.12638 -0.91626,0.008 -1.80881,-0.0632 -2.69347,-0.13428 z m 12.11668,-1.21641 c 2.89884,-3.83089 5.30006,-7.95404 7.09308,-12.30625 h 10.7344 c -4.40751,5.84507 -10.62382,10.22888 -17.82748,12.30625 z"
       id="path1056"
       style="stroke-width:0.0789872" />
    <g
       id="g1076"
       transform="matrix(0.1596841,0,0,0.1596841,25.15795,68.649966)">
      <path
         d="M 10,101.9 V 898.2 H 990 V 101.9 Z m 918.8,735 H 71.3 V 285.6 h 857.5 z"
         id="path1070" />
    </g>
  </g>
</svg>
